<svg width="249" height="47" viewBox="0 0 249 47" fill="none" xmlns="http://www.w3.org/2000/svg">
<path d="M21.556 33.388C22.752 32.504 24 31.36 25.56 31.36C27.744 31.36 28.004 33.44 28.004 34.688C28.004 34.948 28.212 35.104 28.42 35.104C28.628 35.104 28.784 34.844 28.784 34.636V20.18C28.784 18.932 29.616 18.62 34.296 18.62C34.556 18.62 34.816 18.412 34.816 18.152C34.816 17.892 34.504 17.736 34.244 17.736C28.784 17.736 22.336 17.736 16.408 17.736C16.148 17.736 15.836 17.892 15.836 18.152C15.836 18.412 16.096 18.62 16.408 18.62C21.868 18.62 22.596 18.984 22.596 20.284V28.656C22.596 31.724 19.736 34.636 15.784 34.636C8.92 34.636 6.892 27.46 6.892 18.256C6.892 10.092 8.972 1.616 15.68 1.616C23.272 1.616 26.6 10.56 27.068 15.032C27.12 15.604 27.276 15.76 27.536 15.76C27.848 15.76 27.952 15.656 27.952 15.084L28.316 1.928C28.316 1.616 28.264 1.356 27.9 1.356C27.64 1.356 27.484 1.72 27.38 1.98C26.756 3.176 25.716 5.308 24.988 5.308C24.364 5.308 23.064 4.008 22.804 3.748C20.828 2.032 18.852 0.939997 15.888 0.939997C7.048 0.939997 0.0800018 9.208 0.0800018 18.412C0.0800018 29.228 6.736 35.364 14.588 35.364C18.696 35.364 20.308 34.324 21.556 33.388Z" fill="#E61428"/>
<path d="M40.3743 21.74C42.0383 21.74 43.1823 20.492 43.1823 18.932C43.1823 17.372 42.4023 16.8 41.5183 16.332C41.1023 16.124 40.5303 15.968 40.5303 15.604C40.5303 14.616 43.1303 12.9 45.5743 12.9C47.4463 12.9 49.4223 13.316 49.4223 16.436C49.4223 17.736 49.4223 18.776 49.4223 20.076C49.4223 21.896 48.1743 22.52 46.7183 22.676C43.9103 22.988 42.6623 23.04 40.3743 24.028C37.9823 25.068 36.5263 27.096 36.5263 29.488C36.5263 33.18 39.0223 35.364 42.5583 35.364C45.4183 35.364 47.3423 34.272 49.0063 32.088C49.0583 31.984 49.2143 31.776 49.4223 31.776C49.6303 31.776 49.7343 31.932 49.7863 32.088C50.6183 34.012 52.2303 35 54.2583 35C57.4303 35 58.9383 33.804 58.9383 29.488C58.9383 28.292 58.9383 27.356 58.9383 26.264C58.9383 25.796 58.8343 25.64 58.4703 25.64C58.1583 25.64 58.0543 25.796 58.0543 26.264C58.0543 27.356 58.0543 28.24 58.0543 29.436C58.0543 32.608 57.3263 33.544 56.1823 33.544C54.9863 33.544 54.5183 32.712 54.5183 31.412C54.5183 26.94 54.5183 22.624 54.5183 18.1C54.5183 14.772 52.0743 12.224 46.8743 12.224C42.5063 12.224 37.5663 14.408 37.5663 18.516C37.5663 20.18 38.5543 21.74 40.3743 21.74ZM45.1583 23.612C45.9383 23.456 46.9783 23.3 47.7063 23.144C48.2783 23.04 48.6943 22.832 48.8503 22.78C49.2663 22.624 49.4223 22.988 49.4223 23.716C49.4223 25.38 49.4223 26.732 49.4223 28.5C49.4223 30.84 47.3423 34.22 44.4303 34.22C42.6103 34.22 41.6743 32.296 41.6743 29.384C41.6743 26.576 42.9743 23.976 45.1583 23.612Z" fill="#E61428"/>
<path d="M61.7033 14.512C62.5872 14.512 62.7952 14.668 62.7952 15.396C62.7952 17.944 62.4833 24.288 62.4833 28.656C62.4833 33.076 64.4592 35.364 68.4112 35.364C72.9873 35.364 74.1312 32.92 74.1312 28.24C74.1312 26.784 74.1312 25.38 74.1312 24.028C74.1312 23.716 73.9753 23.404 73.7152 23.404C73.4032 23.404 73.2473 23.716 73.2473 24.028C73.2473 25.328 73.2473 26.784 73.2473 28.24C73.2473 31.36 72.2593 34.012 69.9713 34.012C67.9953 34.012 67.3712 32.504 67.3712 29.696C67.3712 24.184 67.3712 14.876 67.3712 14.356C67.3712 14.356 71.1152 14.356 72.7793 14.356C73.1953 14.356 73.7152 13.94 73.7152 13.472C73.7152 12.952 73.1432 12.692 72.6752 12.692C71.2192 12.692 69.6072 12.692 68.2032 12.692C67.5272 12.692 67.3712 12.484 67.3712 11.86C67.3712 8.584 67.3712 5.672 67.3712 3.176C67.3712 2.864 67.2673 2.5 66.9553 2.5C66.5913 2.5 66.3832 2.864 66.3832 3.176C66.0713 7.18 64.4072 12.276 59.1553 13.524C58.8953 13.576 58.5312 13.68 58.5312 13.992C58.5312 14.304 58.8952 14.512 59.2072 14.512C60.0912 14.512 60.8713 14.512 61.7033 14.512Z" fill="#E61428"/>
<path d="M80.3367 24.808C81.7927 25.744 83.6647 25.952 85.2767 26.316C88.2407 26.94 90.7367 28.032 90.7367 30.84C90.7367 33.076 89.3847 34.844 86.5767 34.844C81.7927 34.844 79.4527 29.748 78.3607 25.484C78.3087 25.328 78.1527 24.912 77.8927 24.912C77.6327 24.912 77.4767 25.172 77.4767 25.432C77.4767 28.292 77.4767 31.568 77.4767 35.052C77.4767 35.208 77.5807 35.364 77.7367 35.364C77.8927 35.364 78.0487 35.26 78.1007 35.156C78.6727 34.324 79.0367 33.7 79.6087 32.972C79.7127 32.868 79.9207 32.452 80.1807 32.452C80.4407 32.452 80.8047 32.764 80.9607 32.92C82.6767 34.532 84.2887 35.52 86.7327 35.52C91.3087 35.52 93.7007 32.4 93.7007 28.552C93.7007 25.796 92.2967 23.248 90.1127 22.364C88.6047 21.74 87.5647 21.428 85.8487 21.116C82.8327 20.544 79.4007 19.608 79.4007 16.644C79.4007 14.616 81.1167 12.796 83.7687 12.796C87.8767 12.796 90.2687 16.852 90.9447 20.908C90.9967 21.116 91.0487 21.428 91.3087 21.428C91.5687 21.428 91.7247 21.116 91.7247 20.908C91.7247 18.204 91.9847 15.76 91.9847 12.744C91.9847 12.64 91.8807 12.432 91.7247 12.38C91.5167 12.328 91.3607 12.484 91.2567 12.64C90.9447 13.108 90.5287 13.576 90.0087 14.2C89.8527 14.408 89.6447 14.668 89.3847 14.668C89.2287 14.668 88.9167 14.408 88.8127 14.304C87.3047 13.108 85.6927 12.224 83.8727 12.224C79.9207 12.224 77.0607 15.292 77.0607 18.984C77.0607 21.428 78.4647 23.612 80.3367 24.808Z" fill="#E61428"/>
<path d="M97.7616 27.928C97.7616 30.268 97.7096 32.192 97.6056 34.792C97.6056 35.104 97.6576 35.364 97.9176 35.364C98.1256 35.364 98.3336 35.156 98.3856 35C99.0096 33.856 99.2696 33.388 100.102 32.036C100.206 31.88 100.466 31.516 100.674 31.516C100.934 31.516 101.142 31.724 101.298 31.88C103.014 33.908 105.042 35.364 107.642 35.364C113.466 35.364 117.99 29.54 117.99 23.352C117.99 17.684 114.142 11.964 108.942 11.964C106.186 11.964 104.366 13.732 102.858 16.488H102.702C102.702 12.328 102.702 2.5 102.702 1.304C102.702 0.887998 102.546 0.679997 101.974 0.731997C98.8536 1.096 95.8896 1.356 93.1856 1.356C92.9256 1.356 92.7176 1.512 92.7176 1.772C92.7176 2.032 93.0296 2.188 93.1856 2.188C96.9296 2.084 97.7616 2.916 97.7616 4.84V27.928ZM112.374 23.196C112.374 31.62 110.762 34.532 107.694 34.532C104.678 34.532 102.702 32.036 102.702 23.872C102.702 18.308 104.574 12.848 108.214 12.848C111.178 12.848 112.374 16.28 112.374 23.196Z" fill="#E61428"/>
<path d="M130.652 38.848C129.664 41.864 128 45.348 125.816 45.348C125.452 45.348 124.776 45.14 124.776 44.776C124.776 43.996 125.816 43.996 125.816 42.28C125.816 40.98 124.724 39.888 123.424 39.888C121.916 39.888 120.824 41.292 120.824 42.8C120.824 44.724 122.592 46.128 124.828 46.128C128.26 46.128 129.924 43.06 130.756 40.564L138.14 19.4C139.96 14.252 141 14.096 142.924 14.096C143.08 14.096 143.392 13.784 143.34 13.524C143.288 13.316 143.028 13.212 142.872 13.212C140.22 13.212 136.58 13.212 135.228 13.212C135.124 13.212 134.864 13.42 134.864 13.628C134.864 13.94 135.28 14.096 135.488 14.096C137.464 14.096 138.452 14.668 138.452 16.124C138.452 17.216 136.112 23.3 134.656 27.564C134.552 27.824 134.448 28.344 134.188 28.344C133.98 28.344 133.668 27.772 133.616 27.616C131.796 23.144 128.936 16.02 128.936 15.136C128.936 14.2 130.184 14.096 132.16 14.096C132.368 14.096 132.784 13.94 132.784 13.628C132.784 13.368 132.42 13.212 132.16 13.212C128.624 13.212 123.424 13.212 119.992 13.212C119.836 13.212 119.524 13.368 119.524 13.628C119.524 13.888 119.836 14.096 119.992 14.096C122.28 14.096 123.372 14.46 123.84 15.708C126.752 23.196 129.196 28.916 131.848 35.364C131.588 36.248 130.652 38.848 130.652 38.848Z" fill="#E61428"/>
<path d="M148.48 25.692V25.848C145.932 26.472 144.476 28.344 144.476 30.372C144.476 33.024 145.672 35.052 148.532 35.988V36.144C146.348 37.132 144.06 38.12 144.06 39.94C144.06 43.06 149.364 45.764 155.24 45.764C160.284 45.764 165.276 42.852 165.276 37.86C165.276 33.44 162.26 30.632 156.436 30.632C153.94 30.632 152.536 31.1 149.988 31.1C148.324 31.1 146.036 30.684 146.036 28.916C146.036 27.356 147.492 26.524 149.52 26.524C151.288 26.524 152.484 27.044 154.304 27.044C158.932 27.044 163.716 24.392 163.716 19.712C163.716 16.852 161.688 14.564 159.972 13.316C159.192 12.744 159.192 12.484 159.192 11.392C159.192 10.56 159.452 9.364 160.076 9.364C160.284 9.364 160.388 9.468 160.388 9.676C160.388 10.352 161.22 11.496 162.208 11.496C163.248 11.496 164.028 10.612 164.028 9.624C164.028 8.324 163.092 7.492 161.948 7.492C159.712 7.492 158.36 8.844 158.464 12.692C157.112 12.38 156.228 12.224 154.824 12.224C149.78 12.224 145.672 15.708 145.672 20.44C145.672 22.416 146.868 24.6 148.48 25.692ZM158.984 20.128C158.984 24.444 157.476 26.368 154.772 26.368C152.276 26.368 150.508 25.172 150.508 19.556C150.508 14.304 152.588 12.744 154.928 12.744C157.372 12.744 158.984 14.824 158.984 20.128ZM163.144 40.044C163.144 43.528 158.672 45.348 154.824 45.348C150.976 45.348 147.648 43.684 147.648 40.252C147.648 36.664 150.664 35.832 156.228 35.832C160.596 35.832 163.144 36.976 163.144 40.044Z" fill="#E61428"/>
<path d="M179.939 13.784C180.407 13.784 180.875 13.888 180.875 14.148C180.875 15.344 179.575 15.188 179.575 17.372C179.575 18.828 180.667 20.076 182.123 20.076C183.891 20.076 185.191 18.568 185.191 16.8C185.191 14.512 183.891 12.952 180.823 12.952C177.859 12.952 176.507 15.448 175.519 17.58H175.363C175.363 15.448 175.363 13.628 175.363 13.576C175.363 12.952 175.155 12.692 174.583 12.744C171.463 13.108 168.863 13.368 166.159 13.368C165.899 13.368 165.691 13.524 165.691 13.784C165.691 14.044 166.003 14.2 166.159 14.2C169.903 14.096 170.423 14.668 170.423 16.852V31.984C170.423 34.012 169.643 34.116 166.211 34.116C165.951 34.116 165.743 34.324 165.743 34.532C165.743 34.792 165.899 35 166.159 35C166.679 35 179.575 35 179.939 35C180.147 35 180.407 34.844 180.407 34.532C180.407 34.272 180.147 34.116 179.939 34.116C176.871 34.116 175.363 33.856 175.363 32.816V25.224C175.363 17.944 177.339 13.784 179.939 13.784Z" fill="#E61428"/>
<path d="M190.636 21.74C192.3 21.74 193.444 20.492 193.444 18.932C193.444 17.372 192.664 16.8 191.78 16.332C191.364 16.124 190.792 15.968 190.792 15.604C190.792 14.616 193.392 12.9 195.836 12.9C197.708 12.9 199.684 13.316 199.684 16.436C199.684 17.736 199.684 18.776 199.684 20.076C199.684 21.896 198.436 22.52 196.98 22.676C194.172 22.988 192.924 23.04 190.636 24.028C188.244 25.068 186.788 27.096 186.788 29.488C186.788 33.18 189.284 35.364 192.82 35.364C195.68 35.364 197.604 34.272 199.268 32.088C199.32 31.984 199.476 31.776 199.684 31.776C199.892 31.776 199.996 31.932 200.048 32.088C200.88 34.012 202.492 35 204.52 35C207.692 35 209.2 33.804 209.2 29.488C209.2 28.292 209.2 27.356 209.2 26.264C209.2 25.796 209.096 25.64 208.732 25.64C208.42 25.64 208.316 25.796 208.316 26.264C208.316 27.356 208.316 28.24 208.316 29.436C208.316 32.608 207.588 33.544 206.444 33.544C205.248 33.544 204.78 32.712 204.78 31.412C204.78 26.94 204.78 22.624 204.78 18.1C204.78 14.772 202.336 12.224 197.136 12.224C192.768 12.224 187.828 14.408 187.828 18.516C187.828 20.18 188.816 21.74 190.636 21.74ZM195.42 23.612C196.2 23.456 197.24 23.3 197.968 23.144C198.54 23.04 198.956 22.832 199.112 22.78C199.528 22.624 199.684 22.988 199.684 23.716C199.684 25.38 199.684 26.732 199.684 28.5C199.684 30.84 197.604 34.22 194.692 34.22C192.872 34.22 191.936 32.296 191.936 29.384C191.936 26.576 193.236 23.976 195.42 23.612Z" fill="#E61428"/>
<path d="M232.193 17.84C231.673 14.72 228.969 12.692 226.005 12.692C222.989 12.692 220.493 14.512 219.297 17.892H219.089C218.985 16.488 218.933 14.512 218.881 13.316C218.881 12.9 218.725 12.692 218.153 12.744C215.033 13.108 212.433 13.368 209.729 13.368C209.469 13.368 209.261 13.524 209.261 13.784C209.261 14.044 209.573 14.2 209.729 14.2C213.473 14.096 213.993 14.928 213.993 16.852V31.984C213.993 34.012 213.213 34.116 209.781 34.116C209.521 34.116 209.313 34.324 209.313 34.532C209.313 34.792 209.469 35 209.729 35C210.249 35 221.689 35 222.053 35C222.261 35 222.521 34.844 222.521 34.532C222.521 34.272 222.261 34.116 222.053 34.116C219.869 34.116 218.933 33.856 218.933 32.816V28.188C218.933 22.52 219.713 13.836 224.445 13.836C225.901 13.836 226.837 14.668 226.837 17.32V32.816C226.837 33.856 226.161 34.116 223.561 34.116C223.301 34.116 223.093 34.272 223.093 34.532C223.093 34.792 223.301 35 223.561 35C223.925 35 233.129 35 235.053 35C235.313 35 235.573 34.792 235.573 34.532C235.573 34.272 235.313 34.116 235.053 34.116C232.869 34.116 231.933 33.908 231.933 32.816V28.188C231.933 22.52 232.713 13.836 237.445 13.836C238.901 13.836 239.837 14.668 239.837 17.32V32.816C239.837 33.856 239.161 34.116 236.561 34.116C236.301 34.116 236.093 34.272 236.093 34.532C236.093 34.792 236.301 35 236.561 35C236.925 35 246.441 35 248.365 35C248.625 35 248.885 34.792 248.885 34.532C248.885 34.272 248.625 34.116 248.365 34.116C246.181 34.116 244.933 33.908 244.933 32.816L245.193 19.296C245.245 15.604 242.541 12.692 239.005 12.692C235.989 12.692 233.597 14.512 232.401 17.892C232.401 17.892 232.193 17.892 232.193 17.84Z" fill="#E61428"/>
</svg>
